<svg version="1.1" id="Layer_1" xmlns="http://www.w3.org/2000/svg" xmlns:xlink="http://www.w3.org/1999/xlink" x="0px" y="0px"
	 width="100%" viewBox="0 0 904 916" enable-background="new 0 0 904 916" xml:space="preserve">
<path fill="#FFFFFF" opacity="1.000000" stroke="none" 
	d="
M571.000000,917.000000 
	C380.666656,917.000000 190.833328,917.000000 1.000000,917.000000 
	C1.000000,611.666687 1.000000,306.333344 1.000000,1.000000 
	C302.333344,1.000000 603.666687,1.000000 905.000000,1.000000 
	C905.000000,306.333344 905.000000,611.666687 905.000000,917.000000 
	C793.833313,917.000000 682.666687,917.000000 571.000000,917.000000 
M669.590637,693.614502 
	C669.590637,693.614502 669.733093,693.451904 670.264343,693.192871 
	C671.214355,692.476013 672.164368,691.759216 673.566711,690.901611 
	C673.854736,690.717407 674.013306,690.455017 674.646118,689.843750 
	C675.802246,688.909973 676.958313,687.976196 678.732117,686.760986 
	C682.858826,681.188782 686.985474,675.616577 691.726868,669.699402 
	C694.095703,663.466919 696.464600,657.234375 698.973999,650.357300 
	C699.019409,649.920227 699.064819,649.483093 699.666077,648.777222 
	C699.721863,648.185303 699.777649,647.593445 699.971252,646.184326 
	C700.017578,644.804871 700.063904,643.425476 700.666077,641.777222 
	C700.721863,641.185303 700.777649,640.593445 700.972046,639.073242 
	C700.981384,519.196106 701.012329,399.318939 700.908691,279.441925 
	C700.905151,275.293427 699.555603,271.146149 698.968750,266.213776 
	C697.453857,262.244904 695.938965,258.276001 694.741272,253.611450 
	C689.774475,242.639938 683.021667,233.065170 672.841736,225.358429 
	C671.912415,224.873871 670.983032,224.389297 670.008728,223.981110 
	C670.008728,223.981110 670.088379,223.942291 669.795654,223.308807 
	C661.424011,217.362717 652.321167,213.192810 641.656799,211.252655 
	C640.437439,211.223984 639.218018,211.195312 637.267151,211.028473 
	C636.525085,210.980286 635.782959,210.932083 634.536194,210.185410 
	C633.209412,210.123611 631.882690,210.007782 630.555908,210.007690 
	C512.698608,209.999420 394.841339,209.999481 276.984070,210.006927 
	C275.655884,210.007019 274.327698,210.111099 272.295166,210.043930 
	C271.197418,210.418167 270.099640,210.792404 268.208405,211.028976 
	C267.138763,211.074860 266.069153,211.120743 264.213440,211.053253 
	C263.135834,211.369476 262.071655,211.744720 260.978577,211.992828 
	C249.246750,214.655853 238.695831,219.609070 229.280701,228.226669 
	C225.814041,232.138412 222.347382,236.050156 218.259140,240.248642 
	C211.889633,248.479797 207.888596,257.743011 206.025711,268.647064 
	C205.976883,269.085785 205.928055,269.524536 205.279053,270.299377 
	C205.241577,271.199371 205.204117,272.099335 205.028870,273.818176 
	C204.978989,275.199860 204.929108,276.581573 204.279053,278.299377 
	C204.241577,279.199371 204.204102,280.099335 204.027954,281.927490 
	C204.018631,399.897003 204.004349,517.866516 204.048477,635.836060 
	C204.049118,637.557922 204.777756,639.279541 205.033615,641.662537 
	C205.077957,642.107788 205.122314,642.552979 205.029602,643.751648 
	C205.408615,645.168152 205.787628,646.584717 206.031387,648.536133 
	C206.081604,649.079834 206.131821,649.623535 206.105438,650.950378 
	C206.459183,651.634094 206.812912,652.317810 207.031372,653.743774 
	C207.651428,655.511719 208.271469,657.279724 208.993622,659.702698 
	C209.384628,660.468811 209.775635,661.234924 210.038284,662.606018 
	C210.322800,663.086670 210.607330,663.567322 210.998901,664.773010 
	C215.737778,675.196167 222.626984,684.066467 231.674332,690.934937 
	C236.716278,694.762634 242.730652,697.309448 248.686615,701.064758 
	C251.457123,701.987671 254.227631,702.910522 257.715363,704.206299 
	C263.651611,705.137512 269.586731,706.872864 275.524231,706.881104 
	C391.584747,707.041077 507.645599,706.961548 623.706238,707.063538 
	C634.502258,707.073059 644.898193,705.554504 655.698608,701.747925 
	C659.268921,699.741516 662.839294,697.735107 666.588989,695.608887 
	C666.588989,695.608887 666.735046,695.450134 667.233154,695.207031 
	C667.960327,694.718140 668.687561,694.229187 669.590637,693.614502 
z"/>
<path fill="#6A36FE" opacity="1.000000" stroke="none" 
	d="
M264.999512,211.166626 
	C266.069153,211.120743 267.138763,211.074860 268.666321,211.421051 
	C271.735382,214.369568 272.372131,212.279114 272.999512,210.166641 
	C274.327698,210.111099 275.655884,210.007019 276.984070,210.006927 
	C394.841339,209.999481 512.698608,209.999420 630.555908,210.007690 
	C631.882690,210.007782 633.209412,210.123611 634.817139,210.871246 
	C636.064941,211.426941 637.031799,211.296799 637.998657,211.166641 
	C639.218018,211.195312 640.437439,211.223984 641.897827,211.942596 
	C642.753296,213.085190 643.306274,213.690262 643.991699,213.966705 
	C650.370361,216.539185 656.760681,219.083694 663.172546,221.572098 
	C665.442505,222.453079 667.781128,223.157349 670.088379,223.942291 
	C670.088379,223.942291 670.008728,223.981110 670.066895,224.304153 
	C671.121521,225.070648 672.117859,225.514084 673.114258,225.957520 
	C683.021667,233.065170 689.774475,242.639938 694.466064,254.374817 
	C695.738403,259.091553 697.285950,263.044922 698.833435,266.998291 
	C699.555603,271.146149 700.905151,275.293427 700.908691,279.441925 
	C701.012329,399.318939 700.981384,519.196106 700.616516,639.579285 
	C700.210754,640.738892 700.160522,641.392456 700.110229,642.046021 
	C700.063904,643.425476 700.017578,644.804871 699.616089,646.634827 
	C699.210693,647.738892 699.160461,648.392456 699.110229,649.046021 
	C699.064819,649.483093 699.019409,649.920227 698.559387,650.753418 
	C695.243164,656.297485 692.239014,661.393311 689.564453,666.656677 
	C689.214233,667.345764 690.554749,668.894043 691.112122,670.044312 
	C686.985474,675.616577 682.858826,681.188782 678.020264,686.890503 
	C676.219727,688.051514 675.131042,689.082886 674.042419,690.114319 
	C674.013306,690.455017 673.854736,690.717407 672.934021,690.960815 
	C671.445251,691.830688 670.589172,692.641296 669.733093,693.451904 
	C669.733093,693.451904 669.590637,693.614502 669.128174,693.447876 
	C668.022156,694.004150 667.378601,694.727173 666.735046,695.450134 
	C666.735046,695.450134 666.588989,695.608887 666.099854,695.437256 
	C659.000793,695.325500 656.207031,697.054626 654.999084,701.833496 
	C644.898193,705.554504 634.502258,707.073059 623.706238,707.063538 
	C507.645599,706.961548 391.584747,707.041077 275.524231,706.881104 
	C269.586731,706.872864 263.651611,705.137512 257.281616,703.673096 
	C254.000854,702.237732 251.153824,701.335632 248.306793,700.433472 
	C242.730652,697.309448 236.716278,694.762634 231.674332,690.934937 
	C222.626984,684.066467 215.737778,675.196167 211.185287,664.257812 
	C210.970001,663.162048 210.568314,662.581543 210.166656,662.001038 
	C209.775635,661.234924 209.384628,660.468811 209.209091,659.173218 
	C208.671921,656.763062 207.919281,654.882263 207.166641,653.001526 
	C206.812912,652.317810 206.459183,651.634094 206.471100,650.478210 
	C206.613373,649.337769 206.390015,648.669495 206.166641,648.001221 
	C205.787628,646.584717 205.408615,645.168152 205.378326,643.331055 
	C206.020630,642.592590 206.314224,642.274780 206.607819,641.956970 
	C206.127426,641.638428 205.647034,641.319824 205.166641,641.001282 
	C204.777756,639.279541 204.049118,637.557922 204.048477,635.836060 
	C204.004349,517.866516 204.018631,399.897003 204.419907,281.421814 
	C205.416351,280.310913 206.020844,279.705719 206.625336,279.100525 
	C206.043304,278.721436 205.461273,278.342346 204.879242,277.963257 
	C204.929108,276.581573 204.978989,275.199860 205.420380,273.367126 
	C206.416367,272.310913 207.020859,271.705719 207.625336,271.100525 
	C207.043304,270.721436 206.461273,270.342346 205.879242,269.963257 
	C205.928055,269.524536 205.976883,269.085785 206.448639,268.271484 
	C207.298553,267.662994 207.945267,267.537933 208.120285,267.181366 
	C212.280960,258.704620 216.409241,250.211655 220.425537,241.666214 
	C220.551071,241.399124 219.423874,240.543274 218.880707,239.961899 
	C222.347382,236.050156 225.814041,232.138412 229.996674,228.104248 
	C231.853607,227.881302 233.292099,228.193024 234.089981,227.617157 
	C243.067001,221.138077 253.061005,216.868073 263.537415,213.540039 
	C264.208405,213.326904 264.520477,211.983994 264.999512,211.166626 
M564.000000,343.395142 
	C563.478394,351.639465 563.977600,360.107666 562.228882,368.082916 
	C558.228882,386.325104 548.842773,401.555084 534.125977,413.466309 
	C519.750793,425.100983 503.390045,431.694611 485.069885,431.864807 
	C440.414032,432.279602 395.751648,431.967499 351.092133,432.056763 
	C347.178497,432.064575 343.189209,432.521301 339.367004,433.366364 
	C322.310425,437.137573 307.521637,444.903870 295.491913,457.905762 
	C281.990875,472.497803 274.492737,489.769745 274.189301,509.337799 
	C273.561493,549.821777 273.996582,590.322266 274.015259,630.815979 
	C274.015900,632.168091 274.240845,633.520081 274.361206,634.872131 
	C274.780518,634.955811 275.199799,635.039429 275.619080,635.123108 
	C276.405701,633.311584 277.324310,631.544983 277.959045,629.681641 
	C286.784363,603.773865 301.270294,581.900757 323.252686,565.191162 
	C351.887390,543.424927 384.828827,533.747742 420.073730,532.224609 
	C452.289215,530.832336 484.623322,532.111450 516.828491,530.590515 
	C528.561279,530.036377 540.533997,525.940063 551.588928,521.463745 
	C573.966003,512.402954 592.218262,497.482880 606.540466,477.946564 
	C621.108215,458.075287 629.086914,435.683716 630.884399,411.232758 
	C631.791687,398.890900 630.662415,386.589233 628.120911,374.348999 
	C623.359436,351.417603 613.416626,331.127014 598.017578,313.654541 
	C584.568848,298.394836 568.238220,286.890686 549.144531,279.652771 
	C535.515747,274.486389 521.528442,270.749634 505.499603,271.004303 
	C510.135223,273.004486 513.795471,274.252136 517.135559,276.083679 
	C530.079651,283.181641 541.413940,292.185028 549.948364,304.438477 
	C557.940918,315.913940 563.146912,328.385223 564.000000,343.395142 
M449.500000,415.000000 
	C462.422302,414.668976 475.414825,415.068237 488.250397,413.834686 
	C507.216431,412.011932 522.146973,402.338379 532.963318,386.805695 
	C542.974487,372.429260 546.641052,356.575348 544.156982,338.891998 
	C540.035767,309.554779 512.009705,284.098602 482.599152,284.023956 
	C444.127777,283.926270 405.655914,283.966888 367.184479,284.054749 
	C363.605072,284.062927 359.914520,284.411102 356.466400,285.322906 
	C320.723846,294.774536 299.572052,329.920135 307.960602,364.564117 
	C311.009247,377.154663 317.086487,388.648743 326.126251,396.911713 
	C339.213196,408.874054 355.593719,415.271423 374.055695,415.067810 
	C398.867706,414.794189 423.684967,415.000000 449.500000,415.000000 
z"/>
<path fill="#6A36FE" opacity="1.000000" stroke="none" 
	d="
M264.606476,211.109955 
	C264.520477,211.983994 264.208405,213.326904 263.537415,213.540039 
	C253.061005,216.868073 243.067001,221.138077 234.089981,227.617157 
	C233.292099,228.193024 231.853607,227.881302 230.299103,227.969727 
	C238.695831,219.609070 249.246750,214.655853 260.978577,211.992828 
	C262.071655,211.744720 263.135834,211.369476 264.606476,211.109955 
z"/>
<path fill="#6A36FE" opacity="1.000000" stroke="none" 
	d="
M218.569916,240.105270 
	C219.423874,240.543274 220.551071,241.399124 220.425537,241.666214 
	C216.409241,250.211655 212.280960,258.704620 208.120285,267.181366 
	C207.945267,267.537933 207.298553,267.662994 206.519104,267.947632 
	C207.888596,257.743011 211.889633,248.479797 218.569916,240.105270 
z"/>
<path fill="#6A36FE" opacity="1.000000" stroke="none" 
	d="
M669.942017,223.625549 
	C667.781128,223.157349 665.442505,222.453079 663.172546,221.572098 
	C656.760681,219.083694 650.370361,216.539185 643.991699,213.966705 
	C643.306274,213.690262 642.753296,213.085190 642.089844,212.258118 
	C652.321167,213.192810 661.424011,217.362717 669.942017,223.625549 
z"/>
<path fill="#6A36FE" opacity="1.000000" stroke="none" 
	d="
M691.419495,669.871826 
	C690.554749,668.894043 689.214233,667.345764 689.564453,666.656677 
	C692.239014,661.393311 695.243164,656.297485 698.489136,651.075684 
	C696.464600,657.234375 694.095703,663.466919 691.419495,669.871826 
z"/>
<path fill="#6A36FE" opacity="1.000000" stroke="none" 
	d="
M655.348877,701.790710 
	C656.207031,697.054626 659.000793,695.325500 666.010193,695.497192 
	C662.839294,697.735107 659.268921,699.741516 655.348877,701.790710 
z"/>
<path fill="#6A36FE" opacity="1.000000" stroke="none" 
	d="
M698.901123,266.606018 
	C697.285950,263.044922 695.738403,259.091553 694.307495,254.722656 
	C695.938965,258.276001 697.453857,262.244904 698.901123,266.606018 
z"/>
<path fill="#6A36FE" opacity="1.000000" stroke="none" 
	d="
M248.496704,700.749146 
	C251.153824,701.335632 254.000854,702.237732 256.923035,703.486694 
	C254.227631,702.910522 251.457123,701.987671 248.496704,700.749146 
z"/>
<path fill="#6A36FE" opacity="1.000000" stroke="none" 
	d="
M207.098999,653.372681 
	C207.919281,654.882263 208.671921,656.763062 209.158051,658.845703 
	C208.271469,657.279724 207.651428,655.511719 207.098999,653.372681 
z"/>
<path fill="#6A36FE" opacity="1.000000" stroke="none" 
	d="
M272.647339,210.105286 
	C272.372131,212.279114 271.735382,214.369568 269.063080,211.489899 
	C270.099640,210.792404 271.197418,210.418167 272.647339,210.105286 
z"/>
<path fill="#6A36FE" opacity="1.000000" stroke="none" 
	d="
M204.579147,278.131317 
	C205.461273,278.342346 206.043304,278.721436 206.625336,279.100525 
	C206.020844,279.705719 205.416351,280.310913 204.489258,280.957703 
	C204.204102,280.099335 204.241577,279.199371 204.579147,278.131317 
z"/>
<path fill="#6A36FE" opacity="1.000000" stroke="none" 
	d="
M205.579147,270.131317 
	C206.461273,270.342346 207.043304,270.721436 207.625336,271.100525 
	C207.020859,271.705719 206.416367,272.310913 205.489258,272.957703 
	C205.204117,272.099335 205.241577,271.199371 205.579147,270.131317 
z"/>
<path fill="#6A36FE" opacity="1.000000" stroke="none" 
	d="
M674.344238,689.979004 
	C675.131042,689.082886 676.219727,688.051514 677.711365,687.031250 
	C676.958313,687.976196 675.802246,688.909973 674.344238,689.979004 
z"/>
<path fill="#6A36FE" opacity="1.000000" stroke="none" 
	d="
M669.998718,693.322388 
	C670.589172,692.641296 671.445251,691.830688 672.707886,691.031250 
	C672.164368,691.759216 671.214355,692.476013 669.998718,693.322388 
z"/>
<path fill="#6A36FE" opacity="1.000000" stroke="none" 
	d="
M666.984131,695.328613 
	C667.378601,694.727173 668.022156,694.004150 669.040222,693.510742 
	C668.687561,694.229187 667.960327,694.718140 666.984131,695.328613 
z"/>
<path fill="#6A36FE" opacity="1.000000" stroke="none" 
	d="
M637.632935,211.097565 
	C637.031799,211.296799 636.064941,211.426941 635.069458,211.220490 
	C635.782959,210.932083 636.525085,210.980286 637.632935,211.097565 
z"/>
<path fill="#6A36FE" opacity="1.000000" stroke="none" 
	d="
M672.978027,225.657974 
	C672.117859,225.514084 671.121521,225.070648 670.089417,224.265961 
	C670.983032,224.389297 671.912415,224.873871 672.978027,225.657974 
z"/>
<path fill="#6A36FE" opacity="1.000000" stroke="none" 
	d="
M700.388184,641.911621 
	C700.160522,641.392456 700.210754,640.738892 700.547241,640.043457 
	C700.777649,640.593445 700.721863,641.185303 700.388184,641.911621 
z"/>
<path fill="#6A36FE" opacity="1.000000" stroke="none" 
	d="
M205.100128,641.331909 
	C205.647034,641.319824 206.127426,641.638428 206.607819,641.956970 
	C206.314224,642.274780 206.020630,642.592590 205.446854,642.954346 
	C205.122314,642.552979 205.077957,642.107788 205.100128,641.331909 
z"/>
<path fill="#6A36FE" opacity="1.000000" stroke="none" 
	d="
M699.388184,648.911621 
	C699.160461,648.392456 699.210693,647.738892 699.547241,647.043457 
	C699.777649,647.593445 699.721863,648.185303 699.388184,648.911621 
z"/>
<path fill="#6A36FE" opacity="1.000000" stroke="none" 
	d="
M206.099014,648.268677 
	C206.390015,648.669495 206.613373,649.337769 206.509399,650.086670 
	C206.131821,649.623535 206.081604,649.079834 206.099014,648.268677 
z"/>
<path fill="#6A36FE" opacity="1.000000" stroke="none" 
	d="
M210.102463,662.303528 
	C210.568314,662.581543 210.970001,663.162048 211.131760,663.895264 
	C210.607330,663.567322 210.322800,663.086670 210.102463,662.303528 
z"/>
<path fill="#FFFFFF" opacity="1.000000" stroke="none" 
	d="
M564.000000,342.938263 
	C563.146912,328.385223 557.940918,315.913940 549.948364,304.438477 
	C541.413940,292.185028 530.079651,283.181641 517.135559,276.083679 
	C513.795471,274.252136 510.135223,273.004486 505.499603,271.004303 
	C521.528442,270.749634 535.515747,274.486389 549.144531,279.652771 
	C568.238220,286.890686 584.568848,298.394836 598.017578,313.654541 
	C613.416626,331.127014 623.359436,351.417603 628.120911,374.348999 
	C630.662415,386.589233 631.791687,398.890900 630.884399,411.232758 
	C629.086914,435.683716 621.108215,458.075287 606.540466,477.946564 
	C592.218262,497.482880 573.966003,512.402954 551.588928,521.463745 
	C540.533997,525.940063 528.561279,530.036377 516.828491,530.590515 
	C484.623322,532.111450 452.289215,530.832336 420.073730,532.224609 
	C384.828827,533.747742 351.887390,543.424927 323.252686,565.191162 
	C301.270294,581.900757 286.784363,603.773865 277.959045,629.681641 
	C277.324310,631.544983 276.405701,633.311584 275.619080,635.123108 
	C275.199799,635.039429 274.780518,634.955811 274.361206,634.872131 
	C274.240845,633.520081 274.015900,632.168091 274.015259,630.815979 
	C273.996582,590.322266 273.561493,549.821777 274.189301,509.337799 
	C274.492737,489.769745 281.990875,472.497803 295.491913,457.905762 
	C307.521637,444.903870 322.310425,437.137573 339.367004,433.366364 
	C343.189209,432.521301 347.178497,432.064575 351.092133,432.056763 
	C395.751648,431.967499 440.414032,432.279602 485.069885,431.864807 
	C503.390045,431.694611 519.750793,425.100983 534.125977,413.466309 
	C548.842773,401.555084 558.228882,386.325104 562.228882,368.082916 
	C563.977600,360.107666 563.478394,351.639465 564.000000,342.938263 
z"/>
<path fill="#FFFFFF" opacity="1.000000" stroke="none" 
	d="
M449.000000,415.000000 
	C423.684967,415.000000 398.867706,414.794189 374.055695,415.067810 
	C355.593719,415.271423 339.213196,408.874054 326.126251,396.911713 
	C317.086487,388.648743 311.009247,377.154663 307.960602,364.564117 
	C299.572052,329.920135 320.723846,294.774536 356.466400,285.322906 
	C359.914520,284.411102 363.605072,284.062927 367.184479,284.054749 
	C405.655914,283.966888 444.127777,283.926270 482.599152,284.023956 
	C512.009705,284.098602 540.035767,309.554779 544.156982,338.891998 
	C546.641052,356.575348 542.974487,372.429260 532.963318,386.805695 
	C522.146973,402.338379 507.216431,412.011932 488.250397,413.834686 
	C475.414825,415.068237 462.422302,414.668976 449.000000,415.000000 
z"/>
</svg>