<svg width="512" height="168" viewBox="0 0 512 168" fill="none" xmlns="http://www.w3.org/2000/svg">
  <path d="M84 0C37.6 0 0 37.6 0 84s37.6 84 84 84 84-37.6 84-84S130.4 0 84 0zm0 140c-30.9 0-56-25.1-56-56s25.1-56 56-56 56 25.1 56 56-25.1 56-56 56z" fill="#FFFFFF"/>
  <path d="M369.6 28h-44.8v112h44.8c34.7 0 62.4-25.1 62.4-56s-27.7-56-62.4-56zm0 84h-16.8V56h16.8c18.7 0 33.6 12.6 33.6 28s-14.9 28-33.6 28z" fill="#FFFFFF"/>
  <path d="M512 84c0-46.4-37.6-84-84-84h-84v168h84c46.4 0 84-37.6 84-84z" fill="#FFFFFF"/>
  <path d="M196 28h-28v112h28V28z" fill="#FFFFFF"/>
  <path d="M252 28h-28v112h28V28z" fill="#FFFFFF"/>
</svg> 